<?xml version="1.0" encoding="utf-8"?>
<!-- Generator: Adobe Illustrator 22.0.0, SVG Export Plug-In . SVG Version: 6.00 Build 0)  -->
<svg version="1.1" id="Layer_1" xmlns="http://www.w3.org/2000/svg" xmlns:xlink="http://www.w3.org/1999/xlink" x="0px" y="0px"
	 viewBox="0 0 100 100" style="enable-background:new 0 0 100 100;" xml:space="preserve">
<style type="text/css">
	.st0{fill:none;stroke:#231F20;stroke-miterlimit:10;}
</style>
<line class="st0" x1="0" y1="7.5" x2="100" y2="7.5"/>
<line class="st0" x1="0" y1="17.5" x2="100" y2="17.5"/>
<line class="st0" x1="0" y1="27.5" x2="100" y2="27.5"/>
<line class="st0" x1="0" y1="37.5" x2="100" y2="37.5"/>
<line class="st0" x1="0" y1="47.5" x2="100" y2="47.5"/>
<line class="st0" x1="0" y1="57.5" x2="100" y2="57.5"/>
<line class="st0" x1="0" y1="67.5" x2="100" y2="67.5"/>
<line class="st0" x1="0" y1="77.5" x2="100" y2="77.5"/>
<line class="st0" x1="0" y1="87.5" x2="100" y2="87.5"/>
<line class="st0" x1="0" y1="97.5" x2="100" y2="97.5"/>
<line class="st0" x1="0" y1="100" x2="100" y2="100"/>
<g>
	<line class="st0" x1="0" y1="2.5" x2="100" y2="2.5"/>
	<line class="st0" x1="0" y1="12.5" x2="100" y2="12.5"/>
	<line class="st0" x1="0" y1="22.5" x2="100" y2="22.5"/>
	<line class="st0" x1="0" y1="32.5" x2="100" y2="32.5"/>
	<line class="st0" x1="0" y1="42.5" x2="100" y2="42.5"/>
	<line class="st0" x1="0" y1="52.5" x2="100" y2="52.5"/>
	<line class="st0" x1="0" y1="62.5" x2="100" y2="62.5"/>
	<line class="st0" x1="0" y1="72.5" x2="100" y2="72.5"/>
	<line class="st0" x1="0" y1="82.5" x2="100" y2="82.5"/>
	<line class="st0" x1="0" y1="92.5" x2="100" y2="92.5"/>
</g>
<g>
	<line class="st0" x1="0" y1="5" x2="100" y2="5"/>
	<line class="st0" x1="0" y1="15" x2="100" y2="15"/>
	<line class="st0" x1="0" y1="25" x2="100" y2="25"/>
	<line class="st0" x1="0" y1="35" x2="100" y2="35"/>
	<line class="st0" x1="0" y1="45" x2="100" y2="45"/>
	<line class="st0" x1="0" y1="55" x2="100" y2="55"/>
	<line class="st0" x1="0" y1="65" x2="100" y2="65"/>
	<line class="st0" x1="0" y1="75" x2="100" y2="75"/>
	<line class="st0" x1="0" y1="85" x2="100" y2="85"/>
	<line class="st0" x1="0" y1="95" x2="100" y2="95"/>
	<g>
		<line class="st0" x1="0" y1="0" x2="100" y2="0"/>
		<line class="st0" x1="0" y1="10" x2="100" y2="10"/>
		<line class="st0" x1="0" y1="20" x2="100" y2="20"/>
		<line class="st0" x1="0" y1="30" x2="100" y2="30"/>
		<line class="st0" x1="0" y1="40" x2="100" y2="40"/>
		<line class="st0" x1="0" y1="50" x2="100" y2="50"/>
		<line class="st0" x1="0" y1="60" x2="100" y2="60"/>
		<line class="st0" x1="0" y1="70" x2="100" y2="70"/>
		<line class="st0" x1="0" y1="80" x2="100" y2="80"/>
		<line class="st0" x1="0" y1="90" x2="100" y2="90"/>
	</g>
</g>
</svg>
